<?xml version="1.0" encoding="UTF-8"?>
<svg width="500" height="500" version="1.1" viewBox="0 0 132.29 132.29" xmlns="http://www.w3.org/2000/svg" xmlns:cc="http://creativecommons.org/ns#" xmlns:dc="http://purl.org/dc/elements/1.1/" xmlns:rdf="http://www.w3.org/1999/02/22-rdf-syntax-ns#">
 <metadata>
  <rdf:RDF>
   <cc:Work rdf:about="">
    <dc:format>image/svg+xml</dc:format>
    <dc:type rdf:resource="http://purl.org/dc/dcmitype/StillImage"/>
    <dc:title/>
   </cc:Work>
  </rdf:RDF>
 </metadata>
 <g transform="matrix(2.1431 0 0 2.26 -3.5102 -560.49)" fill="#50c0c8">
  <g stroke-width=".20172">
   <path d="m32.471 296.19c-2.4873-0.30598-3.9954-0.98798-5.4728-3.067l-0.51345-1.4487-0.49252-12.734c-0.62093-16.054 0.06463-17.07 1.8941-18.837 1.2137-1.1724 2.4789-1.8577 4.0434-2.1902 1.7707-0.37631 9.6849-0.51005 18.107-0.30596l7.3593 0.17833 1.1592 0.51245c1.3737 0.60731 2.7694 1.9098 3.381 3.1554 0.40715 0.82912 0.45493 1.4445 0.63557 8.183 0.25821 9.6322 0.09179 20.96-0.32556 22.17-0.4284 1.2419-1.4777 2.5438-2.6252 3.2572-1.9544 1.215-1.796 1.2013-14.397 1.2456-6.3027 0.0223-12.042-0.0313-12.753-0.11881zm22.222-3.4764c0.46195-0.23761 0.3421-0.27028-1.4049-0.38326-2.9457-0.19049-19.413-0.1586-18.692 0.0362 0.60142 0.16246 5.5892 0.50871 9.2484 0.64199 3.9647 0.14441 10.331-0.0287 10.848-0.29494zm0.92946-4.9576c0-0.25094-0.96102-0.28309-7.5336-0.25203-8.4067 0.0398-13.985 0.23313-13.157 0.45619 0.2918 0.0786 5.0666 0.12957 10.611 0.1132 8.804-0.0259 10.08-0.0661 10.08-0.31739zm-3.481-4.0153c2.8227-1.6894 3.9486-5.7344 2.53-9.0896-1.6167-3.8236-6.151-4.2584-8.3026-0.79601-1.7861 2.8741-1.5477 6.8378 0.54412 9.0459 1.4528 1.5336 3.5155 1.8649 5.2285 0.83966zm-14.946-0.20321c3.0768-0.96323 5.8658-3.8991 6.7855-7.1426 0.89659-3.1622-0.41873-6.6405-2.9749-7.8669-0.73328-0.35184-1.2225-0.42009-3.017-0.42089-1.9614-7.6e-4 -2.2463 0.0473-3.3831 0.57265-1.0227 0.4726-1.337 0.74148-1.7842 1.5266l-0.54283 0.95298v5.7577c0 7.2395 0.02541 7.3047 2.7588 7.0592 0.58359-0.0524 1.5546-0.24983 2.1578-0.43867zm-2.9536-19.872c0.61122-0.60749 0.6019-0.93344-0.04335-1.5165-0.64437-0.58224-1.5586-0.61116-2.3154-0.0731-0.68545 0.48718-0.71727 1.1315-0.08163 1.654 0.91018 0.74822 1.6424 0.72894 2.4405-0.0642zm21.901-0.23862c0.41152-0.89765-0.30785-1.9403-1.3387-1.9403-0.52657 0-1.6218 0.96013-1.6218 1.4217 0 0.43327 0.68707 1.1374 1.2733 1.3048 0.56625 0.1618 1.4391-0.24498 1.6872-0.78629zm-14.631 0.45494c0.35125-0.38242 0.12212-1.6476-0.35552-1.9632-1.2492-0.82536-2.9456 0.6151-2.0991 1.7824 0.27535 0.37971 0.5183 0.46997 1.2649 0.46997 0.56482 0 1.0274-0.11249 1.1898-0.28923zm6.9662 0.12124c0.29145-0.16695 0.40092-1.7537 0.14657-2.1255-0.24435-0.35721-1.7738-0.23107-2.2334 0.1842-0.9028 0.81574-0.21718 2.112 1.1141 2.1063 0.37933-1e-3 0.81703-0.0759 0.97266-0.16499z"/>
   <path d="m16.14 283.94c-1.1178-0.45877-2.3088-1.7305-2.8793-3.0746-0.56764-1.3373-0.62659-4.0403-0.11912-5.4616 0.67615-1.8938 2.1629-3.3588 3.8308-3.775 2.3631-0.58956 4.9435 1.6452 5.4215 4.6954 0.63849 4.0738-1.8058 7.9955-4.9688 7.972-0.23344-1e-3 -0.81174-0.1621-1.2851-0.35637zm1.8974-3.1147c0.75708-0.31169 1.0869-1.2004 1.0752-2.8975-0.0081-1.1872-0.09728-1.5902-0.44541-2.0134-1.4261-1.7336-3.6904 0.58683-3.0593 3.1351 0.23085 0.93208 0.78784 1.6222 1.4989 1.857 0.17508 0.0579 0.3377 0.11192 0.36139 0.12025 0.0237 8e-3 0.27985-0.0824 0.56924-0.20148z"/>
   <path d="m6.9081 283.77c-0.7681-0.62012-0.75424-0.5298-1.1231-7.3178l-0.24409-4.4914-1.2657-0.25929c-2.3369-0.47872-2.7879-1.114-1.5104-2.1275 1.4454-1.1467 5.5081-2.067 8.4503-1.9142 1.8443 0.0957 2.4961 0.43414 2.4961 1.2957 0 0.58461-0.40916 0.96136-2.256 2.0771-0.76885 0.46451-1.3499 0.96593-1.4206 1.2258-0.20752 0.76329-0.35133 2.248-0.58122 6.0005-0.26764 4.3688-0.42877 5.2424-1.0509 5.6975-0.61542 0.45027-0.72184 0.43699-1.4943-0.18667z"/>
   <path d="m36.34 279.17c-0.54996-0.80404-0.22394-5.7498 0.42147-6.3942 0.72667-0.72553 2.3329-0.25159 2.9171 0.8607 0.50727 0.96593 0.42805 1.9811-0.25669 3.2889-0.85173 1.6267-2.6224 2.9164-3.0819 2.2446z"/>
   <path d="m49.582 280.24c-0.53892-0.79869-0.61351-3.5001-0.12037-4.3616 0.32116-0.56116 0.85657-0.86265 1.1957-0.6733 0.96484 0.53881 1.2846 3.6681 0.49838 4.8774-0.58362 0.8977-1.0431 0.9437-1.5736 0.15751z"/>
  </g>
  <path d="m50.223 280.89c-0.40778-0.0617-0.81384-0.52619-1.0194-1.1662-0.15721-0.48957-0.2281-1.0237-0.22809-1.7197 3.3e-5 -0.76933 0.09543-1.4121 0.28718-1.9328 0.11386-0.30939 0.23271-0.50013 0.40867-0.65596 0.36653-0.32458 0.72024-0.41003 1.0487-0.25335 0.10053 0.0479 0.28689 0.21314 0.37037 0.32833 0.28314 0.39062 0.4976 1.0256 0.60411 1.7887 0.07607 0.54463 0.06829 1.1752-0.02047 1.6778-0.16685 0.94401-0.58893 1.6786-1.08 1.8798-0.12498 0.0513-0.25826 0.0703-0.37096 0.0534zm0.29875-0.14654c0.26588-0.11766 0.65966-0.61077 0.81913-1.0256 0.20619-0.53637 0.29624-1.2789 0.24784-2.0433-0.07955-1.2564-0.47394-2.2717-0.96708-2.4899-0.401-0.1774-1.0317 0.28219-1.2668 0.92307-0.36321 0.99022-0.27585 3.1998 0.15882 4.0176 0.11116 0.20899 0.31719 0.45423 0.46799 0.55682 0.12863 0.0875 0.19644 0.10896 0.33453 0.10534 0.09814-2e-3 0.12529-8e-3 0.20558-0.0438z" stroke-width=".012608"/>
  <path d="m36.669 279.37c-0.15562-0.0267-0.28816-0.0857-0.40975-0.18249-0.06066-0.0483-0.0867-0.0887-0.11576-0.18009-0.14467-0.45334-0.19691-1.8516-0.12355-3.3106 0.06129-1.2182 0.18778-2.1244 0.35251-2.5242l0.0127-0.0314h0.08242c0.05622 0 0.08242 2e-3 0.08242 7e-3 0 4e-3 -0.0127 0.0408-0.02684 0.0824-0.09782 0.27592-0.21098 0.803-0.28438 1.3251-0.1102 0.78352-0.16844 1.5793-0.17732 2.4208-0.01111 1.1126 0.08465 1.8906 0.26999 2.1781 0.05335 0.0827 0.13863 0.14624 0.23461 0.17488 0.04779 0.0144 0.064 0.0159 0.14975 0.0162 0.10782 3.3e-4 0.16452-8e-3 0.27626-0.0418 0.58475-0.17602 1.3693-0.83006 1.9617-1.6353 0.27112-0.36857 0.48366-0.73837 0.67672-1.1775 0.19831-0.45098 0.30879-0.83142 0.35846-1.2344 0.01429-0.11751 0.02017-0.43089 0.0096-0.55132-0.02128-0.25318-0.07448-0.48923-0.16271-0.72394-0.12355-0.32838-0.27928-0.58911-0.47939-0.8025l-0.03509-0.0374h0.1372l0.06352 0.0763c0.23232 0.27936 0.40342 0.59161 0.50286 0.91781 0.12736 0.4178 0.14387 0.85527 0.05176 1.3727-0.20117 1.1305-0.9528 2.4175-1.8794 3.2181-0.39907 0.3448-0.8038 0.56628-1.1604 0.635-0.08734 0.0169-0.29307 0.0219-0.36858 8e-3z" stroke-width=".0063038"/>
  <g stroke-width=".0089149">
   <path d="m36.418 273.07c0.04176-0.0889 0.13117-0.23086 0.19345-0.30732 0.02651-0.0326 0.09084-0.0975 0.14308-0.14446 0.19575-0.17578 0.42595-0.28107 0.70336-0.32172 0.10815-0.0158 0.34666-0.0159 0.46921-7e-5 0.3628 0.0468 0.74493 0.20404 1.086 0.44683 0.09607 0.0683 0.40718 0.34341 0.42773 0.37814 0.01111 0.0181 0.0096 0.0186-0.05018 0.0186h-0.06114l-0.11545-0.1039c-0.35289-0.31713-0.79404-0.52762-1.2505-0.59664-0.15134-0.0229-0.42448-0.0208-0.55395 4e-3 -0.25424 0.0491-0.45563 0.14545-0.61802 0.29568-0.07861 0.0727-0.13688 0.16146-0.19736 0.30103l-0.0432 0.0996h-0.16578z"/>
   <path d="m32.287 272.16-0.0013-1.011 0.25908-0.45507c0.14244-0.25029 0.29467-0.5153 0.33815-0.58891 0.31231-0.52883 0.55963-0.78686 1.0187-1.0629 0.16136-0.097 0.21275-0.11528 0.06829-0.0243-0.44142 0.27808-0.81047 0.66342-1.0599 1.1066-0.23218 0.41261-0.36732 0.82374-0.45959 1.3982-0.05065 0.31515-0.10624 0.86218-0.14991 1.4745-0.01111 0.15927-0.0127 0.0895-0.01429-0.83724z"/>
   <path d="m19.089 277.51c-1.6e-4 -0.048-0.03161-0.29521-0.05632-0.44279-0.07645-0.45638-0.21387-0.86838-0.37516-1.1247-0.02635-0.0419-0.04585-0.0781-0.04334-0.0803 0.0025-2e-3 0.02853 0.025 0.05781 0.0608 0.2473 0.30216 0.35175 0.59544 0.4029 1.1314 0.01626 0.17016 0.02959 0.4915 0.02038 0.4915-0.0034 0-0.0062-0.0163-0.0063-0.036z"/>
  </g>
  <path d="m33.698 296.21c-1.6142-0.0537-2.4218-0.18291-3.3678-0.53872-1.3036-0.49035-2.0551-1.1432-3.519-3.057l-0.3264-0.9429-0.39616-11.104c-0.56134-15.734 0.01429-17.652 0.90054-19.322 0.22512-0.42448 0.41333-0.63672 1.1675-1.3166 1.6237-1.4638 2.8532-1.9729 5.2442-2.1713 2.8489-0.23641 12.719-0.25869 20.506-0.0464l3.4895 0.0707 0.25048 0.0366c1.0915 0.15937 2.5125 0.75938 3.2482 1.3977 1.0791 0.93632 1.1285 2.1088 1.3164 3.0765 0.27426 1.4126 0.41507 7.7884 0.41325 16.735-0.0015 7.3585-0.05796 9.8705-0.26679 11.879-0.10005 0.96142-0.3361 1.55-0.97121 2.421-0.57103 0.7832-1.2391 1.3922-2.0837 1.8994-1.0279 0.61733-1.6597 0.78586-3.4447 0.91893-1.1884 0.0886-19.807 0.14263-22.16 0.0643zm19.423-3.2849c0.49022-0.0387 1.0346-0.0895 1.2096-0.11297 0.31508-0.0422 0.68986-0.24492 0.60139-0.32521-0.23677-0.2149-5.5354-0.32724-13.361-0.28326-5.9516 0.0334-7.3831 0.0758-6.8333 0.20215 0.49795 0.11447 4.1103 0.3855 6.8333 0.5128 0.83745 0.0392 1.673 0.082 1.8569 0.0954 0.71667 0.0521 8.8513-0.0225 9.6928-0.089zm0.37137-4.907c1.934-0.0709 2.1168-0.0946 2.1168-0.27087 0-0.0883-0.07907-0.13845-0.27852-0.17673-0.43187-0.0828-13.801-0.0503-16.396 0.0398-2.5565 0.0888-3.9747 0.18627-4.0814 0.28073-0.03891 0.0343-0.05557 0.0672-0.03716 0.0733 0.33407 0.10873 15.956 0.15384 18.676 0.0538zm-2.1803-3.884c1.4966-0.51676 2.8553-1.9571 3.5059-3.7168 0.34126-0.92295 0.45334-1.5994 0.45265-2.7321-8.41e-4 -1.1487-0.10449-1.7393-0.49233-2.7998-0.58326-1.5952-1.866-2.8394-3.3506-3.2499-0.41518-0.11482-0.63944-0.13416-1.2627-0.10907-0.45025 0.0181-0.90855 0.0785-1.1292 0.14871-2.0391 0.64935-3.527 2.8411-3.8376 5.6531-0.2688 2.4337 0.70947 4.9752 2.3733 6.1656 0.46057 0.32952 1.1638 0.66126 1.6216 0.76497 0.47952 0.10863 1.6411 0.0403 2.1189-0.12468zm-15.253-0.31313c1.5914-0.3212 2.6937-0.81428 3.9923-1.7858 2.0094-1.5032 3.6487-4.0009 4.0885-6.2291 0.15102-0.76487 0.1507-2.1741-4.12e-4 -2.9036-0.43748-2.1095-1.6687-3.7651-3.3329-4.4816-0.63682-0.27418-1.4348-0.3527-3.2319-0.31802-1.3481 0.0259-1.5957 0.0482-2.0193 0.18069-0.66544 0.20817-1.5896 0.66002-1.9747 0.96546-0.31892 0.25295-0.87247 0.99213-0.87247 1.165 0 0.0496-0.02684 0.0902-0.05955 0.0902-0.03272 0-0.03828 0.0502-0.0127 0.11157 0.03447 0.0811 0.02049 0.0968-0.05097 0.0568-0.06304-0.0351-0.08051-0.0289-0.04875 0.0176 0.02732 0.0399-0.0096 0.35407-0.08131 0.69825-0.11767 0.56229-0.13101 1.13-0.13101 5.5921 0 5.0954 0.01954 5.5032 0.30102 6.2809 0.12514 0.3456 0.42459 0.64027 0.74655 0.73449 0.35864 0.1049 1.7488 0.0145 2.6872-0.17495zm-2.5471-19.625c0.31962-0.10973 0.98638-0.72733 1.1157-1.0333 0.14514-0.34339 0.08528-0.52089-0.30822-0.91447-0.71486-0.71495-1.6999-0.76725-2.4979-0.13259-0.61953 0.49276-0.64619 1.0006-0.08115 1.5464 0.54829 0.52962 1.2067 0.7281 1.7716 0.53405zm21.837-0.0927c0.43237-0.18424 0.65331-0.38207 0.81347-0.72844 0.23471-0.50758 0.35284-1.0831-0.11576-1.5071-0.63217-0.57203-1.5009-0.52047-2.2787 0.17152-0.53482 0.47581-0.66312 0.7259-0.54858 1.0693 0.17802 0.53377 0.98248 1.1548 1.4942 1.1536 0.14514-3.4e-4 0.43111-0.072 0.63536-0.1589zm-14.385 0.0215c0.5571-0.10786 0.71934-0.30285 0.71364-0.85727-0.0096-0.88553-0.34682-1.4107-1.0062-1.5648-1.2211-0.28534-2.3013 1.0167-1.6332 1.9685 0.11863 0.16892 0.25769 0.33065 0.30917 0.3594 0.28513 0.15923 1.0507 0.20381 1.6166 0.0941zm7.1408-1e-3c0.50891-0.0986 0.61021-0.28042 0.65516-1.1758 0.05748-1.1446-0.13704-1.3644-1.1327-1.2804-1.0958 0.0925-1.6392 0.5064-1.6347 1.2452 0.0048 0.92527 0.91033 1.444 2.1123 1.211z" stroke-width=".070602"/>
  <path d="m33.806 284.03c-0.38276-0.0197-0.63863-0.10412-0.83745-0.27664-0.18751-0.16264-0.32775-0.42431-0.42533-0.79367-0.01858-0.0702-0.01731-0.0748 0.0048-0.0159 0.03923 0.10808 0.13038 0.29529 0.19339 0.39759 0.26182 0.42464 0.59312 0.57642 1.3385 0.61321 0.25846 0.0129 0.54265 0.011 0.78038-8e-3 0.82472-0.0631 1.8851-0.28698 2.6111-0.5512 0.40158-0.14613 0.85178-0.3484 1.2542-0.56354l0.10132-0.0543 0.0012 0.0212c0.0013 0.0182-1.27e-4 0.0224-0.0096 0.0286-0.01794 0.0128-0.23221 0.12569-0.33566 0.17777-0.75781 0.38106-1.4469 0.6099-2.4232 0.80469-0.53122 0.10599-0.92903 0.15805-1.5412 0.20167-0.25408 0.0181-0.56708 0.0265-0.71232 0.0189z" stroke-width=".0044126"/>
  <g stroke-width=".0062404">
   <path d="m56.069 263.53c0-1e-3 0.0127-0.0265 0.02874-0.0548 0.05827-0.10511 0.10512-0.24024 0.12704-0.36619 0.01588-0.0906 0.01588-0.27799-2.85e-4 -0.3699-0.04368-0.25304-0.15642-0.48542-0.33151-0.68299-0.2032-0.22928-0.47869-0.38539-0.78222-0.44327-0.07321-0.0144-0.09718-0.0157-0.22007-0.016-0.14975-3.8e-4 -0.17881 2e-3 -0.33007 0.0358-0.14896 0.0326-0.34587 0.0993-0.43997 0.14901-0.05542 0.0292-0.03382 7e-3 0.04081-0.041 0.2137-0.13918 0.37957-0.21285 0.55741-0.24766 0.07115-0.0144 0.11687-0.0152 0.21546-5e-3 0.15706 0.0145 0.31441 0.054 0.45279 0.11377 0.1426 0.0614 0.22497 0.11517 0.3658 0.23857 0.24794 0.21714 0.39129 0.43897 0.464 0.71806 0.064 0.24542 0.05304 0.51783-0.02986 0.74599-0.03128 0.0862-0.11783 0.25269-0.11783 0.22672z"/>
   <path d="m53.351 263.35c-0.05367-0.0825-0.09718-0.16762-0.12482-0.24335-0.06558-0.18047-0.0513-0.30187 0.05812-0.49106 0.04685-0.0812 0.09909-0.15928 0.10354-0.15513 0.0015 1e-3 -0.0079 0.0248-0.02002 0.0521-0.12402 0.27184-0.12577 0.5765-0.0048 0.83037 0.01429 0.0303 0.02524 0.0559 0.02398 0.0571-0.0012 1e-3 -0.01763-0.0213-0.03636-0.0501z"/>
   <path d="m54.624 264.24c-0.10942-0.011-0.22302-0.0429-0.35124-0.0999-0.08575-0.0381-0.27077-0.14263-0.26382-0.14887 0.0015-1e-3 0.02986 0.011 0.06194 0.0267 0.16269 0.084 0.37242 0.1482 0.5696 0.17402 0.08735 0.0117 0.32489 0.011 0.40532-2e-3 0.08067-0.0129 0.08972-0.0129 0.04431 2e-3 -0.05748 0.0187-0.16202 0.0398-0.23117 0.0465-0.06018 5e-3 -0.18448 7e-3 -0.23496 2e-3z"/>
   <path d="m48.75 262.82c-0.03637-0.52888-0.10386-0.76894-0.25659-0.91256-0.08798-0.0828-0.20214-0.12943-0.37494-0.15337-0.09528-0.0129-0.4819-0.011-0.67619 5e-3 -0.21022 0.017-0.31568 0.0279-0.43986 0.0455-0.05589 7e-3 -0.11212 0.0158-0.12482 0.0175-0.04907 7e-3 0.17288-0.0558 0.27006-0.0762 0.2231-0.0468 0.41385-0.0683 0.64576-0.0728 0.30526-5e-3 0.51348 0.0219 0.67122 0.0901 0.08655 0.0375 0.14514 0.096 0.19542 0.19514 0.02747 0.054 0.03811 0.0887 0.0586 0.18863 0.03399 0.16645 0.05193 0.44327 0.04383 0.67814l-0.0048 0.11867z"/>
   <path d="m48.092 264.1c0.24279-0.0577 0.40323-0.15676 0.508-0.31393 0.0127-0.0194 0.02366-0.0328 0.02366-0.0297-3.1e-5 0.0152-0.04733 0.11838-0.06463 0.14106-0.02938 0.0387-0.10655 0.1016-0.15308 0.12483-0.0486 0.0243-0.12085 0.0458-0.23523 0.0697-0.08337 0.0175-0.1453 0.0237-0.07877 8e-3z"/>
  </g>
 </g>
</svg>
