<?xml version="1.0" encoding="UTF-8" standalone="no"?>
<svg
   xmlns:dc="http://purl.org/dc/elements/1.1/"
   xmlns:cc="http://creativecommons.org/ns#"
   xmlns:rdf="http://www.w3.org/1999/02/22-rdf-syntax-ns#"
   xmlns:svg="http://www.w3.org/2000/svg"
   xmlns="http://www.w3.org/2000/svg"
   id="svg330"
   version="1.1"
   viewBox="0 0 66.145832 39.687501"
   height="150"
   width="250">
  <defs
     id="defs324" />
  <metadata
     id="metadata327">
    <rdf:RDF>
      <cc:Work
         rdf:about="">
        <dc:format>image/svg+xml</dc:format>
        <dc:type
           rdf:resource="http://purl.org/dc/dcmitype/StillImage" />
        <dc:title></dc:title>
      </cc:Work>
    </rdf:RDF>
  </metadata>
  <g
     transform="translate(0,-257.31247)"
     id="layer1">
    <path
       id="path122"
       d="m 32.471335,296.1866 c -2.487346,-0.30598 -3.995414,-0.98798 -5.472817,-3.06699 l -0.513452,-1.44871 -0.49252,-12.73428 c -0.620927,-16.054 0.06463,-17.06979 1.894145,-18.83715 1.213667,-1.17236 2.478866,-1.8577 4.043402,-2.19021 1.770693,-0.37631 9.684882,-0.51005 18.107376,-0.30596 l 7.359306,0.17833 1.159247,0.51245 c 1.373738,0.60731 2.769423,1.90984 3.381043,3.15541 0.407151,0.82912 0.454934,1.44447 0.63557,8.18296 0.25821,9.63218 0.09179,20.96004 -0.325558,22.17013 -0.428397,1.24191 -1.477689,2.54381 -2.625233,3.2572 -1.954441,1.215 -1.796037,1.20131 -14.397136,1.24565 -6.302725,0.0223 -12.041739,-0.0313 -12.753373,-0.11881 z m 22.222348,-3.4764 c 0.461952,-0.23761 0.342105,-0.27028 -1.404878,-0.38326 -2.945676,-0.19049 -19.412972,-0.1586 -18.691937,0.0362 0.601425,0.16246 5.589201,0.50871 9.248448,0.64199 3.964654,0.14441 10.330644,-0.0287 10.848367,-0.29494 z m 0.929462,-4.95757 c 0,-0.25094 -0.961015,-0.28309 -7.533559,-0.25203 -8.406677,0.0398 -13.984858,0.23313 -13.15722,0.45619 0.291797,0.0786 5.066587,0.12957 10.610659,0.1132 8.803997,-0.0259 10.08012,-0.0661 10.08012,-0.31739 z m -3.481026,-4.01531 c 2.822685,-1.68938 3.948599,-5.73442 2.53,-9.08955 -1.616688,-3.82363 -6.150977,-4.25835 -8.302632,-0.79601 -1.786097,2.8741 -1.547673,6.83778 0.544116,9.0459 1.45282,1.53362 3.515549,1.86487 5.228516,0.83966 z M 37.19623,283.53411 c 3.076782,-0.96323 5.865832,-3.8991 6.785464,-7.14261 0.89659,-3.16221 -0.418726,-6.64046 -2.974894,-7.86689 -0.73328,-0.35184 -1.222512,-0.42009 -3.016979,-0.42089 -1.961395,-7.6e-4 -2.246315,0.0473 -3.383108,0.57265 -1.022677,0.4726 -1.33696,0.74148 -1.784175,1.52658 l -0.542829,0.95298 v 5.75769 c 0,7.23952 0.02541,7.30467 2.758767,7.05916 0.583594,-0.0524 1.554582,-0.24983 2.157754,-0.43867 z m -2.953552,-19.87202 c 0.611224,-0.60749 0.601903,-0.93344 -0.04335,-1.51651 -0.644368,-0.58224 -1.558552,-0.61116 -2.315365,-0.0731 -0.685448,0.48718 -0.717271,1.13149 -0.08163,1.65398 0.910183,0.74822 1.642398,0.72894 2.440451,-0.0642 z m 21.90054,-0.23862 c 0.411516,-0.89765 -0.307852,-1.9403 -1.338692,-1.9403 -0.526568,0 -1.621831,0.96013 -1.621831,1.42174 0,0.43327 0.687067,1.13739 1.27328,1.30485 0.566252,0.1618 1.439084,-0.24498 1.687243,-0.78629 z m -14.63075,0.45494 c 0.351252,-0.38242 0.122119,-1.64759 -0.355523,-1.96318 -1.249222,-0.82536 -2.945627,0.6151 -2.099125,1.78244 0.275346,0.37971 0.518295,0.46997 1.264897,0.46997 0.564823,0 1.027361,-0.11249 1.189751,-0.28923 z m 6.966179,0.12124 c 0.291447,-0.16695 0.400925,-1.75371 0.146573,-2.1255 -0.244347,-0.35721 -1.773805,-0.23107 -2.233405,0.1842 -0.902799,0.81574 -0.217176,2.11196 1.114114,2.10629 0.379328,-0.001 0.817031,-0.0759 0.972655,-0.16499 z"
       style="fill:#50c0c8;fill-opacity:1;stroke-width:0.20172107" />
    <path
       id="path124"
       d="m 16.139669,283.93951 c -1.117844,-0.45877 -2.308797,-1.73049 -2.879322,-3.0746 -0.567638,-1.33729 -0.626594,-4.04027 -0.119119,-5.46155 0.676151,-1.89375 2.162928,-3.35885 3.830797,-3.77495 2.363117,-0.58956 4.943467,1.6452 5.421538,4.69543 0.638488,4.07376 -1.805808,7.99546 -4.968764,7.97204 -0.233438,-0.001 -0.811742,-0.1621 -1.285124,-0.35637 z m 1.897431,-3.11468 c 0.75708,-0.31169 1.086855,-1.20037 1.075224,-2.89753 -0.0081,-1.18719 -0.09728,-1.59018 -0.445407,-2.01336 -1.426143,-1.73355 -3.690447,0.58683 -3.059306,3.13509 0.230852,0.93208 0.787838,1.62215 1.498858,1.85699 0.175078,0.0579 0.3377,0.11192 0.361389,0.12025 0.0237,0.008 0.279848,-0.0824 0.569242,-0.20148 z"
       style="fill:#50c0c8;fill-opacity:1;stroke-width:0.20172107" />
    <path
       id="path126"
       d="m 6.9080847,283.77197 c -0.7681034,-0.62012 -0.7542391,-0.5298 -1.1231397,-7.31775 l -0.2440924,-4.49137 -1.265741,-0.25929 c -2.3368779,-0.47872 -2.7878958,-1.11398 -1.5104188,-2.12746 1.4453609,-1.14666 5.508081,-2.06698 8.4502602,-1.9142 1.844253,0.0957 2.496108,0.43414 2.496108,1.29573 0,0.58461 -0.409161,0.96136 -2.255953,2.0771 -0.768847,0.46451 -1.349905,0.96593 -1.42057,1.22585 -0.2075227,0.76329 -0.3513345,2.248 -0.5812211,6.00053 -0.2676423,4.36878 -0.4287657,5.24235 -1.0508929,5.69753 -0.6154211,0.45027 -0.7218367,0.43699 -1.4943393,-0.18667 z"
       style="fill:#50c0c8;fill-opacity:1;stroke-width:0.20172107" />
    <path
       id="path128"
       d="m 36.339992,279.16525 c -0.549959,-0.80404 -0.223941,-5.74981 0.421473,-6.3942 0.726673,-0.72553 2.332928,-0.25159 2.917092,0.8607 0.507274,0.96593 0.428048,1.98106 -0.256686,3.28888 -0.851727,1.62671 -2.622403,2.91637 -3.081879,2.24462 z"
       style="fill:#50c0c8;fill-opacity:1;stroke-width:0.20172107" />
    <path
       id="path130"
       d="m 49.581552,280.23959 c -0.538923,-0.79869 -0.613511,-3.50007 -0.120372,-4.36162 0.32116,-0.56116 0.856573,-0.86265 1.195676,-0.6733 0.964841,0.53881 1.284603,3.66811 0.49838,4.87741 -0.583625,0.8977 -1.043147,0.9437 -1.573637,0.15751 z"
       style="fill:#50c0c8;fill-opacity:1;stroke-width:0.20172107" />
    <path
       id="path132"
       d="m 50.223028,280.89157 c -0.407785,-0.0617 -0.813839,-0.52619 -1.019423,-1.16617 -0.157212,-0.48957 -0.228101,-1.02373 -0.228086,-1.71974 3.3e-5,-0.76933 0.09543,-1.41208 0.287176,-1.93281 0.113862,-0.30939 0.232708,-0.50013 0.408674,-0.65596 0.366529,-0.32458 0.720241,-0.41003 1.048705,-0.25335 0.100526,0.0479 0.28689,0.21314 0.370372,0.32833 0.283142,0.39062 0.497602,1.02565 0.604109,1.78874 0.07607,0.54463 0.06829,1.17515 -0.02047,1.67779 -0.166854,0.94401 -0.588929,1.67865 -1.08002,1.87984 -0.124977,0.0513 -0.258258,0.0703 -0.37096,0.0534 z m 0.298752,-0.14654 c 0.26588,-0.11766 0.659658,-0.61077 0.819127,-1.02564 0.206187,-0.53637 0.296242,-1.27892 0.247839,-2.04331 -0.07955,-1.25638 -0.473941,-2.27171 -0.967081,-2.48987 -0.401003,-0.1774 -1.031745,0.28219 -1.266802,0.92307 -0.363209,0.99022 -0.275852,3.19981 0.158817,4.01758 0.11116,0.20899 0.317188,0.45423 0.467987,0.55682 0.128628,0.0875 0.196435,0.10896 0.334529,0.10534 0.09814,-0.002 0.125294,-0.008 0.205584,-0.0438 z"
       style="fill:#50c0c8;fill-opacity:1;stroke-width:0.01260756" />
    <path
       id="path134"
       d="m 36.668757,279.36968 c -0.155624,-0.0267 -0.288159,-0.0857 -0.409753,-0.18249 -0.06066,-0.0483 -0.0867,-0.0887 -0.115761,-0.18009 -0.144668,-0.45334 -0.196913,-1.85159 -0.123547,-3.31065 0.06129,-1.21817 0.187782,-2.12436 0.352506,-2.52416 l 0.0127,-0.0314 h 0.08242 c 0.05622,0 0.08242,0.002 0.08242,0.007 0,0.004 -0.0127,0.0408 -0.02684,0.0824 -0.09782,0.27592 -0.210981,0.803 -0.28438,1.32506 -0.110205,0.78352 -0.16844,1.57928 -0.177318,2.42082 -0.01111,1.1126 0.08465,1.89061 0.269994,2.17814 0.05335,0.0827 0.138633,0.14624 0.234613,0.17488 0.04779,0.0144 0.064,0.0159 0.149749,0.0162 0.107825,3.3e-4 0.164517,-0.008 0.276265,-0.0418 0.584753,-0.17602 1.369341,-0.83006 1.961666,-1.63529 0.271121,-0.36857 0.483661,-0.73837 0.676715,-1.17747 0.19831,-0.45098 0.308788,-0.83142 0.358461,-1.23438 0.01429,-0.11751 0.02017,-0.43089 0.0096,-0.55132 -0.02128,-0.25318 -0.07448,-0.48923 -0.162707,-0.72394 -0.123548,-0.32838 -0.279283,-0.58911 -0.479388,-0.8025 l -0.03509,-0.0374 h 0.0686 0.0686 l 0.06352,0.0763 c 0.232325,0.27936 0.403416,0.59161 0.502859,0.91781 0.127358,0.4178 0.143872,0.85527 0.05176,1.37269 -0.201167,1.13051 -0.952805,2.41751 -1.879438,3.21811 -0.399066,0.3448 -0.803804,0.56628 -1.160374,0.635 -0.08734,0.0169 -0.293066,0.0219 -0.368577,0.008 z"
       style="fill:#50c0c8;fill-opacity:1;stroke-width:0.00630379" />
    <path
       id="path136"
       d="m 36.417741,273.0722 c 0.04176,-0.0889 0.131169,-0.23086 0.193452,-0.30732 0.02651,-0.0326 0.09084,-0.0975 0.143079,-0.14446 0.195753,-0.17578 0.425951,-0.28107 0.703361,-0.32172 0.108152,-0.0158 0.346661,-0.0159 0.469209,-7e-5 0.362795,0.0468 0.744934,0.20404 1.085975,0.44683 0.09607,0.0683 0.407181,0.34341 0.427729,0.37814 0.01111,0.0181 0.0096,0.0186 -0.05018,0.0186 h -0.06114 l -0.115449,-0.1039 c -0.352887,-0.31713 -0.794036,-0.52762 -1.25054,-0.59664 -0.151338,-0.0229 -0.424475,-0.0208 -0.553946,0.004 -0.254241,0.0491 -0.455631,0.14545 -0.618021,0.29568 -0.07861,0.0727 -0.136885,0.16146 -0.197358,0.30103 l -0.0432,0.0996 h -0.08289 -0.08289 z"
       style="fill:#50c0c8;fill-opacity:1;stroke-width:0.00891489" />
    <path
       id="path138"
       d="m 32.286904,272.16082 -0.0013,-1.01097 0.259083,-0.45507 c 0.142444,-0.25029 0.294671,-0.5153 0.33815,-0.58891 0.312314,-0.52883 0.559631,-0.78686 1.018707,-1.06286 0.161358,-0.097 0.212746,-0.11528 0.06829,-0.0243 -0.441419,0.27808 -0.810472,0.66342 -1.059869,1.10663 -0.232182,0.41261 -0.367322,0.82374 -0.459586,1.39822 -0.05065,0.31515 -0.106239,0.86218 -0.149907,1.4745 -0.01111,0.15927 -0.0127,0.0895 -0.01429,-0.83724 z"
       style="fill:#50c0c8;fill-opacity:1;stroke-width:0.00891489" />
    <path
       id="path142"
       d="m 19.089367,277.51268 c -1.6e-4,-0.048 -0.03161,-0.29521 -0.05632,-0.44279 -0.07645,-0.45638 -0.213872,-0.86838 -0.375162,-1.12467 -0.02635,-0.0419 -0.04585,-0.0781 -0.04334,-0.0803 0.0025,-0.002 0.02853,0.025 0.05781,0.0608 0.247303,0.30216 0.351749,0.59544 0.402904,1.13138 0.01626,0.17016 0.02959,0.4915 0.02038,0.4915 -0.0034,0 -0.0062,-0.0163 -0.0063,-0.036 z"
       style="fill:#50c0c8;fill-opacity:1;stroke-width:0.00891489" />
    <path
       id="path144"
       d="m 33.698262,296.20953 c -1.614164,-0.0537 -2.421825,-0.18291 -3.367754,-0.53872 -1.30358,-0.49035 -2.055072,-1.14317 -3.519041,-3.05701 l -0.326401,-0.9429 -0.39616,-11.10366 c -0.561344,-15.73363 0.01429,-17.65212 0.900545,-19.32213 0.225115,-0.42448 0.413326,-0.63672 1.167519,-1.31665 1.623659,-1.4638 2.853206,-1.97289 5.24419,-2.17133 2.848919,-0.23641 12.71882,-0.25869 20.506141,-0.0464 l 3.489474,0.0707 0.250478,0.0366 c 1.091548,0.15937 2.512546,0.75938 3.248222,1.39774 1.079053,0.93632 1.128486,2.10882 1.316364,3.07646 0.274264,1.41258 0.415074,7.78837 0.413248,16.73453 -0.0015,7.3585 -0.05796,9.87054 -0.266787,11.87879 -0.100048,0.96142 -0.336102,1.54997 -0.971209,2.42105 -0.571032,0.7832 -1.239059,1.39216 -2.083657,1.89943 -1.027871,0.61733 -1.65966,0.78586 -3.444677,0.91893 -1.188402,0.0886 -19.806765,0.14263 -22.160495,0.0643 z m 19.422802,-3.28491 c 0.490217,-0.0387 1.034555,-0.0895 1.209649,-0.11297 0.315076,-0.0422 0.689862,-0.24492 0.601394,-0.32521 -0.236772,-0.2149 -5.535431,-0.32724 -13.360739,-0.28326 -5.951601,0.0334 -7.383095,0.0758 -6.833264,0.20215 0.497953,0.11447 4.110259,0.3855 6.833264,0.5128 0.837452,0.0392 1.673046,0.082 1.856874,0.0954 0.716668,0.0521 8.85132,-0.0225 9.692822,-0.089 z m 0.371371,-4.907 c 1.933988,-0.0709 2.11683,-0.0946 2.11683,-0.27087 0,-0.0883 -0.07907,-0.13845 -0.278521,-0.17673 -0.431874,-0.0828 -13.800585,-0.0503 -16.396121,0.0398 -2.556502,0.0888 -3.974658,0.18627 -4.081388,0.28073 -0.03891,0.0343 -0.05557,0.0672 -0.03716,0.0733 0.334069,0.10873 15.956419,0.15384 18.676343,0.0538 z m -2.180256,-3.88396 c 1.496635,-0.51676 2.855271,-1.95712 3.505909,-3.71678 0.341263,-0.92295 0.453345,-1.59944 0.452646,-2.73211 -8.41e-4,-1.14866 -0.104491,-1.73926 -0.492331,-2.79984 -0.583259,-1.59523 -1.866036,-2.83945 -3.35057,-3.24986 -0.415184,-0.11482 -0.639443,-0.13416 -1.262673,-0.10907 -0.450248,0.0181 -0.908546,0.0785 -1.129201,0.14871 -2.039145,0.64935 -3.526997,2.84108 -3.83758,5.65309 -0.268802,2.43373 0.709474,4.97522 2.373295,6.16561 0.460569,0.32952 1.163818,0.66126 1.621641,0.76497 0.479516,0.10863 1.641079,0.0403 2.118864,-0.12468 z m -15.253185,-0.31313 c 1.591423,-0.3212 2.693739,-0.81428 3.9923,-1.78576 2.009355,-1.50325 3.64872,-4.00091 4.088534,-6.22912 0.15102,-0.76487 0.150702,-2.17409 -4.12e-4,-2.90363 -0.437481,-2.10953 -1.668695,-3.76509 -3.332897,-4.48161 -0.636823,-0.27418 -1.434797,-0.3527 -3.231867,-0.31802 -1.348075,0.0259 -1.595741,0.0482 -2.019311,0.18069 -0.665438,0.20817 -1.589627,0.66002 -1.974719,0.96546 -0.31892,0.25295 -0.872468,0.99213 -0.872468,1.16502 0,0.0496 -0.02684,0.0902 -0.05955,0.0902 -0.03272,0 -0.03828,0.0502 -0.0127,0.11157 0.03447,0.0811 0.02049,0.0968 -0.05097,0.0568 -0.06304,-0.0351 -0.08051,-0.0289 -0.04875,0.0176 0.02732,0.0399 -0.0096,0.35407 -0.08131,0.69825 -0.117672,0.56229 -0.131011,1.12995 -0.131011,5.59207 0,5.09539 0.01954,5.50315 0.301024,6.28089 0.125135,0.3456 0.424586,0.64027 0.746554,0.73449 0.358636,0.1049 1.748763,0.0145 2.687228,-0.17495 z m -2.54707,-19.62499 c 0.319618,-0.10973 0.986376,-0.72733 1.115702,-1.03334 0.145145,-0.34339 0.08528,-0.52089 -0.308215,-0.91447 -0.714858,-0.71495 -1.699916,-0.76725 -2.497873,-0.13259 -0.61953,0.49276 -0.646194,1.00057 -0.08115,1.54636 0.548292,0.52962 1.206696,0.7281 1.771582,0.53405 z m 21.837384,-0.0927 c 0.432367,-0.18424 0.653308,-0.38207 0.813473,-0.72844 0.234708,-0.50758 0.35284,-1.08309 -0.11576,-1.50708 -0.632171,-0.57203 -1.500907,-0.52047 -2.278729,0.17152 -0.534825,0.47581 -0.663119,0.7259 -0.548577,1.06934 0.178016,0.53377 0.982485,1.15483 1.494172,1.15356 0.145144,-3.4e-4 0.431113,-0.072 0.635363,-0.1589 z m -14.384765,0.0215 c 0.557105,-0.10786 0.719335,-0.30285 0.713635,-0.85727 -0.0096,-0.88553 -0.346821,-1.41074 -1.006162,-1.56482 -1.221051,-0.28534 -2.30131,1.01668 -1.633235,1.96852 0.118627,0.16892 0.257686,0.33065 0.309169,0.3594 0.285127,0.15923 1.050721,0.20381 1.616593,0.0941 z m 7.140781,-0.001 c 0.508908,-0.0986 0.610207,-0.28042 0.655164,-1.1758 0.05748,-1.14455 -0.137045,-1.36444 -1.132727,-1.28043 -1.095773,0.0925 -1.639221,0.5064 -1.634727,1.24518 0.0048,0.92527 0.910326,1.44395 2.11229,1.21105 z"
       style="fill:#50c0c8;fill-opacity:1;stroke-width:0.07060238" />
    <path
       id="path146"
       d="m 33.806357,284.03378 c -0.382757,-0.0197 -0.638633,-0.10412 -0.837452,-0.27664 -0.187513,-0.16264 -0.327749,-0.42431 -0.425332,-0.79367 -0.01858,-0.0702 -0.01731,-0.0748 0.0048,-0.0159 0.03923,0.10808 0.130375,0.29529 0.193387,0.39759 0.261815,0.42464 0.593121,0.57642 1.338516,0.61321 0.258464,0.0129 0.542654,0.011 0.78038,-0.008 0.824715,-0.0631 1.88506,-0.28698 2.611146,-0.5512 0.401575,-0.14613 0.851775,-0.3484 1.254208,-0.56354 l 0.101319,-0.0543 0.0012,0.0212 c 0.0013,0.0182 -1.27e-4,0.0224 -0.0096,0.0286 -0.01794,0.0128 -0.232213,0.12569 -0.335657,0.17777 -0.757814,0.38106 -1.446866,0.6099 -2.423221,0.80469 -0.531221,0.10599 -0.929033,0.15805 -1.541194,0.20167 -0.254081,0.0181 -0.567077,0.0265 -0.712317,0.0189 z"
       style="fill:#50c0c8;fill-opacity:1;stroke-width:0.00441265" />
    <path
       id="path148"
       d="m 56.068645,263.53404 c 0,-10e-4 0.0127,-0.0265 0.02874,-0.0548 0.05827,-0.10511 0.105121,-0.24024 0.12704,-0.36619 0.01588,-0.0906 0.01588,-0.27799 -2.85e-4,-0.3699 -0.04368,-0.25304 -0.15642,-0.48542 -0.331513,-0.68299 -0.203201,-0.22928 -0.478688,-0.38539 -0.78222,-0.44327 -0.07321,-0.0144 -0.09718,-0.0157 -0.220068,-0.016 -0.149749,-3.8e-4 -0.178809,0.002 -0.330066,0.0358 -0.148956,0.0326 -0.345868,0.0993 -0.439974,0.14901 -0.05542,0.0292 -0.03382,0.007 0.04081,-0.041 0.213698,-0.13918 0.379566,-0.21285 0.557406,-0.24766 0.07115,-0.0144 0.116872,-0.0152 0.215461,-0.005 0.157055,0.0145 0.314411,0.054 0.45279,0.11377 0.142602,0.0614 0.224973,0.11517 0.365797,0.23857 0.247935,0.21714 0.391286,0.43897 0.464,0.71806 0.064,0.24542 0.05304,0.51783 -0.02986,0.74599 -0.03128,0.0862 -0.117827,0.25269 -0.117827,0.22672 z"
       style="fill:#50c0c8;fill-opacity:1;stroke-width:0.00624042" />
    <path
       id="path150"
       d="m 53.351086,263.34912 c -0.05367,-0.0825 -0.09718,-0.16762 -0.124818,-0.24335 -0.06558,-0.18047 -0.0513,-0.30187 0.05812,-0.49106 0.04685,-0.0812 0.09909,-0.15928 0.103535,-0.15513 0.0015,10e-4 -0.0079,0.0248 -0.02002,0.0521 -0.124024,0.27184 -0.125771,0.5765 -0.0048,0.83037 0.01429,0.0303 0.02524,0.0559 0.02398,0.0571 -0.0012,10e-4 -0.01763,-0.0213 -0.03636,-0.0501 z"
       style="fill:#50c0c8;fill-opacity:1;stroke-width:0.00624042" />
    <path
       id="path152"
       d="m 54.624351,264.2389 c -0.109416,-0.011 -0.22302,-0.0429 -0.351235,-0.0999 -0.08575,-0.0381 -0.270773,-0.14263 -0.263817,-0.14887 0.0015,-0.001 0.02986,0.011 0.06194,0.0267 0.16269,0.084 0.372418,0.1482 0.569601,0.17402 0.08735,0.0117 0.324891,0.011 0.405324,-0.002 0.08067,-0.0129 0.08972,-0.0129 0.04431,0.002 -0.05748,0.0187 -0.162025,0.0398 -0.231167,0.0465 -0.06018,0.005 -0.184477,0.007 -0.234961,0.002 z"
       style="fill:#50c0c8;fill-opacity:1;stroke-width:0.00624042" />
    <path
       id="path154"
       d="m 48.74996,262.81639 c -0.03637,-0.52888 -0.103861,-0.76894 -0.256592,-0.91256 -0.08798,-0.0828 -0.202136,-0.12943 -0.374944,-0.15337 -0.09528,-0.0129 -0.481896,-0.011 -0.67619,0.005 -0.21022,0.017 -0.315679,0.0279 -0.439862,0.0455 -0.05589,0.007 -0.112117,0.0158 -0.124817,0.0175 -0.04907,0.007 0.172885,-0.0558 0.270056,-0.0762 0.223099,-0.0468 0.413852,-0.0683 0.645764,-0.0728 0.305262,-0.005 0.513483,0.0219 0.671219,0.0901 0.08655,0.0375 0.145145,0.096 0.195421,0.19514 0.02747,0.054 0.03811,0.0887 0.0586,0.18863 0.03399,0.16645 0.05193,0.44327 0.04383,0.67814 l -0.0048,0.11867 z"
       style="fill:#50c0c8;fill-opacity:1;stroke-width:0.00624042" />
    <path
       id="path156"
       d="m 48.092158,264.10316 c 0.242792,-0.0577 0.403227,-0.15676 0.508005,-0.31393 0.0127,-0.0194 0.02366,-0.0328 0.02366,-0.0297 -3.1e-5,0.0152 -0.04733,0.11838 -0.06463,0.14106 -0.02938,0.0387 -0.106554,0.1016 -0.153083,0.12483 -0.0486,0.0243 -0.120848,0.0458 -0.235232,0.0697 -0.08337,0.0175 -0.145302,0.0237 -0.07877,0.008 z"
       style="fill:#50c0c8;fill-opacity:1;stroke-width:0.00624042" />
  </g>
</svg>
